<?xml version="1.0" encoding="UTF-8" standalone="no"?>
<!DOCTYPE svg PUBLIC "-//W3C//DTD SVG 1.1//EN" "http://www.w3.org/Graphics/SVG/1.1/DTD/svg11.dtd">
<svg width="100%" height="100%" viewBox="0 0 800 800" version="1.1" xmlns="http://www.w3.org/2000/svg" xmlns:xlink="http://www.w3.org/1999/xlink" xml:space="preserve" xmlns:serif="http://www.serif.com/" style="fill-rule:evenodd;clip-rule:evenodd;stroke-linecap:round;stroke-linejoin:round;stroke-miterlimit:1.5;">
    <path d="M586.383,533.23L678.237,625.002L625.25,678.037L533.701,586.569C554.094,571.84 571.921,553.796 586.383,533.23ZM272.825,219.952C252.15,234.308 233.997,252.025 219.161,272.309L121.763,174.998L174.75,121.963L272.825,219.952Z" style="fill:rgb(235,235,235);stroke:black;stroke-width:2.76px;"/>
    <path d="M215.538,531.536C229.814,552.241 247.481,570.448 267.738,585.357L174.948,678.197L121.923,625.201L215.538,531.536ZM528.307,218.6L625.052,121.803L678.077,174.799L582.528,270.399C567.484,250.279 549.145,232.748 528.307,218.6Z" style="fill:rgb(235,235,235);stroke:black;stroke-width:2.76px;"/>
    <path d="M623.171,362.576L755.871,362.612L755.851,437.58L624.661,437.545C626.261,426.758 627.09,415.711 627.09,404.473C627.09,390.159 625.744,376.155 623.171,362.576ZM179.953,362.456C177.366,376.058 176.011,390.109 176.011,404.473C176.011,415.662 176.833,426.66 178.422,437.424L44.129,437.388L44.149,362.42L179.953,362.456Z" style="fill:rgb(235,235,235);stroke:black;stroke-width:2.76px;"/>
    <path d="M362.516,625.859C375.204,628.068 388.244,629.219 401.55,629.219C413.774,629.219 425.772,628.248 437.484,626.376L437.484,755.861L362.516,755.861L362.516,625.859ZM437.484,182.57C425.772,180.699 413.774,179.727 401.55,179.727C388.244,179.727 375.204,180.878 362.516,183.088L362.516,44.139L437.484,44.139L437.484,182.57Z" style="fill:rgb(235,235,235);stroke:black;stroke-width:2.76px;"/>
    <g transform="matrix(1,0,0,1.05293,0,-20.3597)">
        <path d="M362.516,625.859C375.204,628.068 388.244,629.219 401.55,629.219C413.774,629.219 425.772,628.248 437.484,626.376L437.484,737.992L362.516,737.992L362.516,625.859ZM437.484,182.57C425.772,180.699 413.774,179.727 401.55,179.727C388.244,179.727 375.204,180.878 362.516,183.088L362.516,62.008L437.484,62.008L437.484,182.57Z" style="fill:rgb(235,235,235);stroke:black;stroke-width:2.69px;"/>
    </g>
    <g transform="matrix(0.9241,-0.382151,0.402379,0.973015,-130.591,164.467)">
        <path d="M362.516,625.859C375.204,628.068 388.244,629.219 401.55,629.219C413.774,629.219 425.772,628.248 437.484,626.376L437.484,737.992L362.516,737.992L362.516,625.859ZM437.484,182.57C425.772,180.699 413.774,179.727 401.55,179.727C388.244,179.727 375.204,180.878 362.516,183.088L362.516,62.008L437.484,62.008L437.484,182.57Z" style="fill:rgb(235,235,235);stroke:black;stroke-width:2.69px;"/>
    </g>
    <g transform="matrix(0.923586,0.383392,-0.403686,0.972473,192.04,-141.533)">
        <path d="M362.516,625.859C375.204,628.068 388.244,629.219 401.55,629.219C413.774,629.219 425.772,628.248 437.484,626.376L437.484,737.992L362.516,737.992L362.516,625.859ZM437.484,182.57C425.772,180.699 413.774,179.727 401.55,179.727C388.244,179.727 375.204,180.878 362.516,183.088L362.516,62.008L437.484,62.008L437.484,182.57Z" style="fill:rgb(235,235,235);stroke:black;stroke-width:2.69px;"/>
    </g>
    <g transform="matrix(0.414272,0.910153,-0.958329,0.436201,617.623,-137.728)">
        <path d="M362.516,625.859C375.204,628.068 388.244,629.219 401.55,629.219C413.774,629.219 425.772,628.248 437.484,626.376L437.484,737.992L362.516,737.992L362.516,625.859ZM437.484,182.57C425.772,180.699 413.774,179.727 401.55,179.727C388.244,179.727 375.204,180.878 362.516,183.088L362.516,62.008L437.484,62.008L437.484,182.57Z" style="fill:rgb(235,235,235);stroke:black;stroke-width:2.69px;"/>
    </g>
    <g transform="matrix(-0.349411,0.93697,-0.986566,-0.367906,934.391,173.188)">
        <path d="M362.516,625.859C375.204,628.068 388.244,629.219 401.55,629.219C413.774,629.219 425.772,628.248 437.484,626.376L437.484,737.992L362.516,737.992L362.516,625.859ZM437.484,182.57C425.772,180.699 413.774,179.727 401.55,179.727C388.244,179.727 375.204,180.878 362.516,183.088L362.516,62.008L437.484,62.008L437.484,182.57Z" style="fill:rgb(235,235,235);stroke:black;stroke-width:2.69px;"/>
    </g>
    <path d="M437.484,89.299C453.672,91.234 469.482,94.407 484.816,98.723L501.823,57.754L571.063,86.496L554.006,127.584C567.705,135.351 580.761,144.122 593.077,153.795L625.052,121.803L678.077,174.799L646.102,206.792C653.87,216.671 661.057,227.028 667.616,237.819L708.379,219.264L739.437,287.497L698.57,306.098C704.289,324.273 708.392,343.163 710.711,362.6L755.871,362.612L755.851,437.58L710.691,437.568C709.199,450.016 706.975,462.241 704.063,474.197L746.549,490.041L720.354,560.284L677.662,544.363C668.682,561.586 658.146,577.871 646.239,593.033L678.237,625.002L625.25,678.037L593.252,646.067C580.613,656.009 567.192,664.999 553.094,672.931L570.64,715.36L501.362,744.009L483.807,701.559C468.781,705.731 453.31,708.808 437.484,710.701L437.484,756.696L362.516,756.696L362.516,710.701C346.545,708.792 330.943,705.678 315.789,701.446L298.177,743.873L228.937,715.131L246.54,672.725C232.646,664.884 219.41,656.012 206.923,646.205L174.948,678.197L121.923,625.201L153.898,593.208C146.436,583.718 139.51,573.786 133.162,563.454L91.621,582.362L60.563,514.129L101.881,495.323C95.925,476.705 91.668,457.337 89.289,437.4L44.129,437.388L44.149,362.42L89.309,362.432C90.74,350.495 92.843,338.764 95.578,327.295L53.451,311.585L79.646,241.342L121.632,257C130.766,239.267 141.545,222.518 153.761,206.967L121.763,174.998L174.75,121.963L206.748,153.933C219.227,144.117 232.469,135.229 246.361,127.376L229.36,86.266L298.638,57.617L315.59,98.609C330.799,94.353 346.472,91.218 362.516,89.299L362.516,44.139L437.484,44.139L437.484,89.299ZM456.853,188.222C574.175,219.6 643.951,340.326 612.573,457.648C581.195,574.971 460.469,644.746 343.147,613.368C225.825,581.99 156.049,461.264 187.427,343.942C218.805,226.62 339.531,156.844 456.853,188.222ZM400,223.778C497.259,223.778 576.222,302.741 576.222,400C576.222,497.259 497.259,576.222 400,576.222C302.741,576.222 223.778,497.259 223.778,400C223.778,302.741 302.741,223.778 400,223.778ZM432.016,280.74C498.085,298.41 537.378,366.395 519.708,432.464C502.038,498.533 434.053,537.826 367.984,520.156C301.915,502.486 262.622,434.5 280.292,368.432C297.962,302.363 365.947,263.069 432.016,280.74Z" style="fill:rgb(235,235,235);stroke:black;stroke-width:2.76px;"/>
</svg>
