<?xml version="1.0" encoding="UTF-8" standalone="no"?>
<!DOCTYPE svg PUBLIC "-//W3C//DTD SVG 1.1//EN" "http://www.w3.org/Graphics/SVG/1.1/DTD/svg11.dtd">
<svg width="100%" height="100%" viewBox="0 0 200 200" version="1.1" xmlns="http://www.w3.org/2000/svg" xmlns:xlink="http://www.w3.org/1999/xlink" xml:space="preserve" xmlns:serif="http://www.serif.com/" style="fill-rule:evenodd;clip-rule:evenodd;stroke-linejoin:round;stroke-miterlimit:2;">
    <g transform="matrix(1,0,0,1,0,-4)">
        <path d="M187.039,31.449C187.039,25.873 182.513,21.347 176.938,21.347L19.504,21.347C13.929,21.347 9.403,25.873 9.403,31.449L9.403,51.652C9.403,57.227 13.929,61.753 19.504,61.753L176.938,61.753C182.513,61.753 187.039,57.227 187.039,51.652L187.039,31.449Z" style="fill:rgb(235,235,235);"/>
    </g>
    <g transform="matrix(1,0,0,1,0,58)">
        <path d="M187.039,31.449C187.039,25.873 182.513,21.347 176.938,21.347L19.504,21.347C13.929,21.347 9.403,25.873 9.403,31.449L9.403,51.652C9.403,57.227 13.929,61.753 19.504,61.753L176.938,61.753C182.513,61.753 187.039,57.227 187.039,51.652L187.039,31.449Z" style="fill:rgb(235,235,235);"/>
    </g>
    <g transform="matrix(1,0,0,1,0,120)">
        <path d="M187.039,31.449C187.039,25.873 182.513,21.347 176.938,21.347L19.504,21.347C13.929,21.347 9.403,25.873 9.403,31.449L9.403,51.652C9.403,57.227 13.929,61.753 19.504,61.753L176.938,61.753C182.513,61.753 187.039,57.227 187.039,51.652L187.039,31.449Z" style="fill:rgb(235,235,235);"/>
    </g>
</svg>
