<?xml version="1.0" encoding="UTF-8" standalone="no"?>
<!DOCTYPE svg PUBLIC "-//W3C//DTD SVG 1.1//EN" "http://www.w3.org/Graphics/SVG/1.1/DTD/svg11.dtd">
<svg width="100%" height="100%" viewBox="0 0 600 400" version="1.1" xmlns="http://www.w3.org/2000/svg" xmlns:xlink="http://www.w3.org/1999/xlink" xml:space="preserve" xmlns:serif="http://www.serif.com/" style="fill-rule:evenodd;clip-rule:evenodd;stroke-linecap:round;stroke-linejoin:round;stroke-miterlimit:1.5;">
    <g transform="matrix(0.923838,0,0,1.01434,-4.67672,-110.906)">
        <path d="M586.277,189.797C586.277,162.467 561.916,140.28 531.909,140.28L120.696,140.28C90.689,140.28 66.328,162.467 66.328,189.797L66.328,420.877C66.328,448.206 90.689,470.394 120.696,470.394L531.909,470.394C561.916,470.394 586.277,448.206 586.277,420.877L586.277,189.797Z" style="fill:rgb(235,235,235);stroke:black;stroke-width:12.37px;"/>
    </g>
    <g transform="matrix(0.950313,0,0,0.973854,0.450076,-200.944)">
        <rect x="100.635" y="297.332" width="422.363" height="0.762" style="stroke:black;stroke-width:12.47px;"/>
    </g>
    <g transform="matrix(0.950313,0,0,0.973854,58.9209,-86.4341)">
        <circle cx="380.772" cy="150.238" r="8.808"/>
    </g>
    <g transform="matrix(0.950313,0,0,0.973854,89.9209,-86.4341)">
        <circle cx="380.772" cy="150.238" r="8.808"/>
    </g>
    <g transform="matrix(0.950313,0,0,0.973854,121.921,-86.4341)">
        <circle cx="380.772" cy="150.238" r="8.808"/>
    </g>
    <g transform="matrix(1.24894,0,0,1.27988,-122.225,-189.279)">
        <text x="181.299px" y="365.085px" style="font-family:'BellMTBold', 'Bell MT', serif;font-weight:700;font-size:144.749px;">&lt; /&gt;</text>
    </g>
</svg>
